<svg width="163" height="53" viewBox="0 0 163 53" fill="none" xmlns="http://www.w3.org/2000/svg">
<path d="M60.396 34.338C59.3907 34.338 58.4287 34.2253 57.51 34C56.6087 33.7747 55.8287 33.4713 55.17 33.09L55.482 29.606C56.262 30.0913 57.0767 30.4727 57.926 30.75C58.7927 31.01 59.59 31.14 60.318 31.14C61.15 31.14 61.826 30.9667 62.346 30.62C62.866 30.2733 63.126 29.814 63.126 29.242C63.126 28.774 62.9527 28.4187 62.606 28.176C62.2593 27.916 61.7133 27.6387 60.968 27.344L60.344 27.084C60.2573 27.0493 60.162 27.0147 60.058 26.98C59.954 26.928 59.8327 26.876 59.694 26.824C58.7233 26.4253 57.9433 26.0527 57.354 25.706C56.7647 25.342 56.2533 24.8393 55.82 24.198C55.404 23.5567 55.196 22.7247 55.196 21.702C55.196 20.038 55.7593 18.7293 56.886 17.776C58.0127 16.8227 59.5813 16.346 61.592 16.346C63.1173 16.346 64.6773 16.658 66.272 17.282L65.7 20.714C65.0587 20.35 64.3653 20.064 63.62 19.856C62.892 19.648 62.1987 19.544 61.54 19.544C60.7253 19.544 60.0927 19.7087 59.642 20.038C59.1913 20.35 58.966 20.7747 58.966 21.312C58.966 21.78 59.122 22.144 59.434 22.404C59.746 22.664 60.2487 22.9413 60.942 23.236L62.008 23.652C63.0133 24.0333 63.8453 24.406 64.504 24.77C65.1627 25.134 65.726 25.6627 66.194 26.356C66.662 27.032 66.896 27.916 66.896 29.008C66.896 30.6893 66.324 31.998 65.18 32.934C64.036 33.87 62.4413 34.338 60.396 34.338ZM76.9385 16.684H81.4625L87.8845 34H83.9845L82.5805 30.048H75.7685L74.4425 34H70.5945L76.9385 16.684ZM81.4625 26.824L79.1225 20.194L76.8605 26.824H81.4625ZM96.275 21.78L95.183 34H91.829L93.467 16.684H98.147L102.567 29.112L106.857 16.684H111.537L113.123 34H109.743L108.547 21.832L103.971 34.182L100.877 34.468L96.275 21.78ZM118.768 16.684C119.271 16.6667 120.224 16.658 121.628 16.658C123.05 16.658 124.012 16.6667 124.514 16.684C126.3 16.7187 127.704 17.1953 128.726 18.114C129.749 19.0327 130.26 20.3067 130.26 21.936C130.26 23.0973 130 24.1287 129.48 25.03C128.96 25.914 128.224 26.5987 127.27 27.084C126.334 27.5693 125.268 27.812 124.072 27.812H122.382V34H118.768V16.684ZM123.916 24.744C124.766 24.744 125.424 24.5013 125.892 24.016C126.378 23.5307 126.62 22.872 126.62 22.04C126.62 20.5147 125.78 19.752 124.098 19.752H122.382V24.744H123.916ZM135.587 16.684H139.357V30.724H145.597V34H135.587V16.684ZM150.806 16.684H161.336V19.96H154.524V23.418H160.166V26.59H154.524V30.724H161.336V34H150.806V16.684Z" fill="#2E3538"/>
<path d="M2.068 41.22V35.5L27.368 35.544C28.6587 35.544 29.6413 35.2507 30.316 34.664C31.02 34.048 31.372 33.0653 31.372 31.716C31.372 30.3667 31.02 29.3987 30.316 28.812C29.6413 28.196 28.6587 27.888 27.368 27.888H11.616C8.36 27.888 5.82267 27.1107 4.004 25.556C2.21467 23.972 1.32 21.6547 1.32 18.604C1.32 15.5533 2.21467 13.2507 4.004 11.696C5.82267 10.112 8.36 9.32 11.616 9.32H36.344V15.04L12.364 14.996C11.1027 14.996 10.12 15.2893 9.416 15.876C8.712 16.4333 8.36 17.3427 8.36 18.604C8.36 19.8653 8.712 20.7893 9.416 21.376C10.12 21.9333 11.1027 22.212 12.364 22.212H28.116C31.372 22.212 33.8947 23.0187 35.684 24.632C37.5027 26.216 38.412 28.5773 38.412 31.716C38.412 34.8253 37.5027 37.1867 35.684 38.8C33.8947 40.4133 31.372 41.22 28.116 41.22H2.068Z" fill="#2C7BE5"/>
</svg>
